Coordinates
version=1
nRows=11
nColumns=46
inDegrees=yes

Units are S.I. units (second, meters, Newtons, ...)
Angles are in degrees.

endheader
time	pelvis_tilt	pelvis_list	pelvis_rotation	pelvis_tx	pelvis_ty	pelvis_tz	bb_angle	bb_tx	bb_ty	bb_tz	hip_flexion_r	hip_adduction_r	hip_rotation_r	knee_angle_r	knee_angle_r_beta	ankle_angle_r	subtalar_angle_r	mtp_angle_r	crank_angle_r	hip_flexion_l	hip_adduction_l	hip_rotation_l	knee_angle_l	knee_angle_l_beta	ankle_angle_l	subtalar_angle_l	mtp_angle_l	crank_angle_l	lumbar_extension	lumbar_bending	lumbar_rotation	arm_flex_r	arm_add_r	arm_rot_r	elbow_flex_r	pro_sup_r	wrist_flex_r	wrist_dev_r	arm_flex_l	arm_add_l	arm_rot_l	elbow_flex_l	pro_sup_l	wrist_flex_l	wrist_dev_l
      7.50000000	    -11.28852611	      3.41005701	     12.38635245	      0.07957242	      1.15246633	     -0.25513603	      0.00000000	      0.50000000	      0.00000000	      0.25000000	     57.76943670	    -11.30788901	      5.86562095	     89.46004981	      1.56137242	    -23.89630962	     -9.56255361	      0.00000000	      0.00000000	     59.73986053	     10.52215342	      5.86654159	     61.36593704	      1.07103765	     17.04899151	    -12.18103226	      0.00000000	      0.00000000	    -65.23325588	      8.48546572	     -6.95252446	     89.59238169	    -21.30368948	     40.38707899	     62.79788426	     39.97643008	      0.00000000	      0.00000000	     89.73224242	    -19.73636830	     41.38834046	     62.05188203	     31.74826197	      0.00000000	      0.00000000
      7.50500000	    -10.75330271	      3.07229773	     11.88153828	      0.08049961	      1.15348079	     -0.25590025	      0.00000000	      0.50000000	      0.00000000	      0.25000000	     58.71544631	    -10.81227533	      6.09338095	     91.00567474	      1.58834866	    -25.93029721	     -9.09149596	      0.00000000	      0.00000000	     57.47813781	      9.72913394	      6.12819704	     58.91986629	      1.02834566	     16.82830146	    -11.57727545	      0.00000000	      0.00000000	    -65.37751920	      8.53106911	     -6.57852063	     89.61609675	    -20.80109251	     40.92564861	     61.89306312	     39.68311197	      0.00000000	      0.00000000	     89.73034877	    -19.88732267	     42.05185340	     61.11855797	     31.53374265	      0.00000000	      0.00000000
      7.51000000	    -10.29924971	      2.66323286	     11.30161836	      0.08128234	      1.15441500	     -0.25663708	      0.00000000	      0.50000000	      0.00000000	      0.25000000	     59.77942865	    -10.20344113	      6.30610645	     92.38962109	      1.61250308	    -28.35079864	     -8.44316308	      0.00000000	      0.00000000	     55.41477390	      8.89669615	      6.38472771	     56.52130664	      0.98648290	     16.11831352	    -11.42641362	      0.00000000	      0.00000000	    -65.44785292	      8.56351917	     -6.23270150	     89.63656891	    -19.89022962	     41.23600689	     60.64676176	     39.12085571	      0.00000000	      0.00000000	     89.72145634	    -20.13298560	     42.68366482	     60.11949651	     31.26000657	      0.00000000	      0.00000000
      7.51500000	     -9.84156428	      2.26494509	     10.62134623	      0.08215059	      1.15547049	     -0.25723097	      0.00000000	      0.50000000	      0.00000000	      0.25000000	     60.83885565	     -9.49594732	      6.61140983	     93.67842695	      1.63499699	    -30.53269567	     -7.70812249	      0.00000000	      0.00000000	     53.37636819	      7.90110115	      6.35321853	     54.18120329	      0.94564039	     15.40970028	    -11.07830492	      0.00000000	      0.00000000	    -65.65700243	      8.52198311	     -5.67943034	     89.65025862	    -19.45031229	     41.47916870	     60.24494378	     38.95655016	      0.00000000	      0.00000000	     89.70858482	    -20.32978817	     43.01548204	     59.64686670	     31.17393620	      0.00000000	      0.00000000
      7.52000000	     -9.34919631	      2.04689970	      9.92174240	      0.08306768	      1.15674114	     -0.25788906	      0.00000000	      0.50000000	      0.00000000	      0.25000000	     61.86366863	     -8.94927416	      6.97320992	     94.93963128	      1.65700916	    -32.61640694	     -7.32671620	      0.00000000	      0.00000000	     51.17290873	      7.06085564	      6.22865975	     51.71905254	      0.90266775	     14.48659735	    -10.83040533	      0.00000000	      0.00000000	    -65.81240730	      8.36957208	     -5.38244584	     89.66440789	    -18.65227782	     41.82171852	     59.08452246	     38.49628286	      0.00000000	      0.00000000	     89.70241887	    -20.48513607	     43.72143993	     58.58866751	     30.96459030	      0.00000000	      0.00000000
      7.52500000	     -8.92277037	      1.58553041	      9.12799636	      0.08385554	      1.15791029	     -0.25826425	      0.00000000	      0.50000000	      0.00000000	      0.25000000	     62.91888544	     -8.08092111	      7.23628471	     96.02498928	      1.67595223	    -34.51280063	     -6.44867062	      0.00000000	      0.00000000	     49.13831084	      5.94994756	      6.10877018	     49.43009664	      0.86271794	     13.72087020	    -10.35095047	      0.00000000	      0.00000000	    -66.10050700	      8.27408752	     -4.74196736	     89.66808218	    -18.01789437	     41.50929103	     58.85497468	     38.40430085	      0.00000000	      0.00000000	     89.67583863	    -20.66719471	     43.52201583	     58.32741185	     31.18918236	      0.00000000	      0.00000000
      7.53000000	     -8.54007238	      1.20336848	      8.35685288	      0.08470040	      1.15893273	     -0.25858315	      0.00000000	      0.50000000	      0.00000000	      0.25000000	     64.01595809	     -7.30554382	      7.45662043	     97.16866745	      1.69591318	    -36.06293790	     -6.19691292	      0.00000000	      0.00000000	     47.12310828	      4.90561367	      5.85604435	     47.14594536	      0.82285198	     12.90293670	     -9.91313595	      0.00000000	      0.00000000	    -66.06777937	      8.18121863	     -4.60761293	     89.68970920	    -16.53252862	     42.14277729	     57.12656377	     35.64152365	      0.00000000	      0.00000000	     89.67511590	    -21.41660271	     44.93415608	     57.22916302	     30.81418918	      0.00000000	      0.00000000
      7.53500000	     -7.99187761	      0.69682729	      7.42415477	      0.08571170	      1.16014196	     -0.25857611	      0.00000000	      0.50000000	      0.00000000	      0.25000000	     64.89849459	     -6.27150904	      7.61837961	     98.25176003	      1.71481671	    -37.23762638	     -5.61136620	      0.00000000	      0.00000000	     44.96691234	      3.53008905	      5.12237075	     45.07200406	      0.78665487	     12.03500192	     -6.60988176	      0.00000000	      0.00000000	    -66.43414981	      7.98106709	     -3.82524372	     89.69375317	    -15.97880137	     42.26709392	     56.74239714	     35.40324114	      0.00000000	      0.00000000	     89.65899483	    -21.45623108	     45.22782168	     56.58811490	     30.72351680	      0.00000000	      0.00000000
      7.54000000	     -7.81240762	     -0.04088446	      6.62516539	      0.08624112	      1.16082643	     -0.25873950	      0.00000000	      0.50000000	      0.00000000	      0.25000000	     66.11266891	     -5.23279579	      7.51266372	     99.30290785	      1.73316270	    -37.87690675	     -5.07913712	      0.00000000	      0.00000000	     43.29997638	      2.26924397	      5.15445356	     42.91682875	      0.74903997	     11.41959531	     -8.64392849	      0.00000000	      0.00000000	    -66.41625646	      8.01663854	     -2.93855968	     89.70361723	    -15.32901826	     42.40609077	     56.14862454	     35.18050359	      0.00000000	      0.00000000	     89.64287078	    -21.54565971	     45.67524294	     55.87635857	     30.63751472	      0.00000000	      0.00000000
      7.54500000	     -7.54913624	     -0.48398295	      5.85169314	      0.08684819	      1.16159796	     -0.25900802	      0.00000000	      0.50000000	      0.00000000	      0.25000000	     67.26286831	     -4.44117951	      7.61845419	    100.44581745	      1.75311023	    -38.11834067	     -4.58271444	      0.00000000	      0.00000000	     41.37799082	      1.30659305	      4.93825674	     40.65952204	      0.70964253	     10.51092679	     -9.27301191	      0.00000000	      0.00000000	    -66.42213176	      7.96667386	     -2.41052796	     89.70717774	    -14.26550384	     42.37134630	     54.97213215	     34.58192658	      0.00000000	      0.00000000	     89.63005333	    -21.68048269	     46.56523606	     54.70752529	     30.57535347	      0.00000000	      0.00000000
      7.55000000	     -7.30534839	     -1.13252357	      4.96603912	      0.08751859	      1.16230865	     -0.25898117	      0.00000000	      0.50000000	      0.00000000	      0.25000000	     68.37442087	     -3.36555310	      7.53416430	    101.53394176	      1.77210159	    -38.14378952	     -4.39351472	      0.00000000	      0.00000000	     39.59120419	     -0.05949083	      4.19937911	     38.67932659	      0.67508160	      9.78278189	     -8.19675528	      0.00000000	      0.00000000	    -66.57005487	      7.90126305	     -1.58965922	     89.71020319	    -13.62740328	     42.43110808	     54.67496912	     34.40396469	      0.00000000	      0.00000000	     89.60160487	    -21.90126801	     46.85977208	     54.27191471	     30.56699348	      0.00000000	      0.00000000
